<svg width="23" height="24" viewBox="0 0 23 24" fill="none" xmlns="http://www.w3.org/2000/svg">
<path d="M19.1476 14L18.7769 10.337C18.52 7.799 18.3916 6.529 17.6137 5.765C16.834 5 15.6718 5 13.3454 5H10.376C8.04966 5 6.88648 5 6.1077 5.765C5.32982 6.529 5.20139 7.799 4.94452 10.337L4.5738 14M11.4053 2H13.6824M13.6824 2H15.9596M13.6824 2V5M16.1117 14H7.60971C5.61856 14 4.62299 14 3.91707 14.543C3.65656 14.743 3.42885 14.993 3.24667 15.279C2.75208 16.054 2.75208 17.147 2.75208 19.333C2.75208 20.426 2.75208 20.973 2.99892 21.36C3.09061 21.5047 3.20265 21.6277 3.33503 21.729C3.68753 22 4.18577 22 5.18135 22H18.5401C19.5356 22 20.0339 22 20.3864 21.729C20.5182 21.6277 20.6302 21.5047 20.7225 21.36C20.9693 20.973 20.9693 20.426 20.9693 19.333C20.9693 17.147 20.9693 16.054 20.4747 15.279C20.2926 14.993 20.0649 14.743 19.8043 14.543C19.0984 14 18.1029 14 16.1117 14Z" stroke="white" stroke-width="1.5" stroke-linecap="round" stroke-linejoin="round"/>
<path d="M9.12815 17.5L10.0354 18.164C10.3348 18.3832 10.6866 18.5001 11.0464 18.5H12.6751C13.0349 18.5001 13.3867 18.3832 13.6861 18.164L14.5933 17.5M8.21729 8H10.039" stroke="white" stroke-width="1.5" stroke-linecap="round" stroke-linejoin="round"/>
<path d="M19.1476 14L18.7769 10.337C18.52 7.799 18.3916 6.529 17.6137 5.765C16.834 5 15.6718 5 13.3454 5H10.376C8.04966 5 6.88648 5 6.1077 5.765C5.32982 6.529 5.20139 7.799 4.94452 10.337L4.5738 14M11.4053 2H13.6824M13.6824 2H15.9596M13.6824 2V5M16.1117 14H7.60971C5.61856 14 4.62299 14 3.91707 14.543C3.65656 14.743 3.42885 14.993 3.24667 15.279C2.75208 16.054 2.75208 17.147 2.75208 19.333C2.75208 20.426 2.75208 20.973 2.99892 21.36C3.09061 21.5047 3.20265 21.6277 3.33503 21.729C3.68753 22 4.18577 22 5.18135 22H18.5401C19.5356 22 20.0339 22 20.3864 21.729C20.5182 21.6277 20.6302 21.5047 20.7225 21.36C20.9693 20.973 20.9693 20.426 20.9693 19.333C20.9693 17.147 20.9693 16.054 20.4747 15.279C20.2926 14.993 20.0649 14.743 19.8043 14.543C19.0984 14 18.1029 14 16.1117 14Z" stroke="white" stroke-width="1.5" stroke-linecap="round" stroke-linejoin="round"/>
<path d="M9.12815 17.5L10.0354 18.164C10.3348 18.3832 10.6866 18.5001 11.0464 18.5H12.6751C13.0349 18.5001 13.3867 18.3832 13.6861 18.164L14.5933 17.5M8.21729 8H10.039" stroke="white" stroke-width="1.5" stroke-linecap="round" stroke-linejoin="round"/>
</svg>
