<svg width="30" height="30" viewBox="0 0 30 30" fill="none" xmlns="http://www.w3.org/2000/svg">
<path d="M3.76251 14.0254V19.6379C3.76251 25.2504 6.01251 27.5004 11.625 27.5004H18.3625C23.975 27.5004 26.225 25.2504 26.225 19.6379V14.0254" stroke="black" stroke-width="1.5" stroke-linecap="round" stroke-linejoin="round"/>
<path d="M15 15C17.2875 15 18.975 13.1375 18.75 10.85L17.925 2.5H12.0875L11.25 10.85C11.025 13.1375 12.7125 15 15 15Z" stroke="black" stroke-width="1.5" stroke-linecap="round" stroke-linejoin="round"/>
<path d="M22.8875 15C25.4125 15 27.2625 12.95 27.0125 10.4375L26.6625 7C26.2125 3.75 24.9625 2.5 21.6875 2.5H17.875L18.75 11.2625C18.9625 13.325 20.825 15 22.8875 15Z" stroke="black" stroke-width="1.5" stroke-linecap="round" stroke-linejoin="round"/>
<path d="M7.05001 15C9.11251 15 10.975 13.325 11.175 11.2625L11.45 8.5L12.05 2.5H8.23751C4.96251 2.5 3.71251 3.75 3.26251 7L2.92501 10.4375C2.67501 12.95 4.52501 15 7.05001 15Z" stroke="black" stroke-width="1.5" stroke-linecap="round" stroke-linejoin="round"/>
<path d="M15 21.25C12.9125 21.25 11.875 22.2875 11.875 24.375V27.5H18.125V24.375C18.125 22.2875 17.0875 21.25 15 21.25Z" stroke="black" stroke-width="1.5" stroke-linecap="round" stroke-linejoin="round"/>
</svg>
